<?xml version="1.0" encoding="utf-8"?>
<!-- Generator: Adobe Illustrator 26.5.0, SVG Export Plug-In . SVG Version: 6.00 Build 0)  -->
<svg version="1.1" id="layer1" xmlns="http://www.w3.org/2000/svg" xmlns:xlink="http://www.w3.org/1999/xlink" x="0px" y="0px"
	 width="24px" height="24px" viewBox="0 0 24 24" enable-background="new 0 0 24 24" xml:space="preserve">
<g>
	<defs>
		<rect id="SVGID_1_" width="24" height="24"/>
	</defs>
	<clipPath id="SVGID_00000127014502947360338250000012112934640495684779_">
		<use xlink:href="#SVGID_1_"  overflow="visible"/>
	</clipPath>
	<g clip-path="url(#SVGID_00000127014502947360338250000012112934640495684779_)">
		<path fill="#0F7139" d="M12,0C5.4,0,0,5.4,0,12c0,6.6,5.4,12,12,12c6.6,0,12-5.4,12-12C24,5.4,18.6,0,12,0z M12,5.7
			c2.5,0,4.6,2.1,4.6,4.6c0,2.5-2.1,4.6-4.6,4.6s-4.6-2.1-4.6-4.6C7.4,7.8,9.5,5.7,12,5.7z M12,21.9c-3.1,0-5.9-1.4-7.7-3.7
			c0.2-0.6,0.5-1.1,1-1.5C6,16,7,15.5,8.2,15.5h0.3c1,0.7,2.2,1.1,3.5,1.1c1.3,0,2.5-0.4,3.5-1.1h0.3c1.1,0,2.2,0.5,2.9,1.2
			c0.4,0.4,0.7,0.9,1,1.5C17.9,20.5,15.1,21.9,12,21.9z"/>
	</g>
</g>
</svg>
