<?xml version="1.0" encoding="utf-8"?>
<!-- Generator: Adobe Illustrator 26.5.0, SVG Export Plug-In . SVG Version: 6.00 Build 0)  -->
<svg version="1.1" id="layer1" xmlns="http://www.w3.org/2000/svg" xmlns:xlink="http://www.w3.org/1999/xlink" x="0px" y="0px"
	 width="24px" height="24px" viewBox="0 0 24 24" enable-background="new 0 0 24 24" xml:space="preserve">
<g>
	<defs>
		<rect id="SVGID_1_" width="24" height="24"/>
	</defs>
	<clipPath id="SVGID_00000036253740042356358210000001798955570346588071_">
		<use xlink:href="#SVGID_1_"  overflow="visible"/>
	</clipPath>
	<g clip-path="url(#SVGID_00000036253740042356358210000001798955570346588071_)">
		<g>
			<ellipse transform="matrix(0.9871 -0.1602 0.1602 0.9871 -3.447 1.8185)" fill="#0F7139" cx="9.6" cy="22.3" rx="1.7" ry="1.7"/>
			<path fill="#0F7139" d="M18.6,20.6c-0.9,0-1.7,0.8-1.7,1.7s0.8,1.7,1.7,1.7c0.9,0,1.7-0.8,1.7-1.7S19.5,20.6,18.6,20.6z"/>
			<path fill="#0F7139" d="M7.6,15.7h13.2c0.5,0,0.9-0.3,1-0.8l1.6-8.4c0.1-0.3,0-0.6-0.2-0.8c-0.2-0.2-0.4-0.4-0.7-0.4L6.8,3.7
				L6.3,0.8C6.2,0.4,5.8,0,5.3,0H1.6c-0.6,0-1,0.5-1,1c0,0.6,0.5,1,1,1h2.8l1.9,11.9c-1.1,0.5-1.9,1.6-1.9,2.8
				c0,1.7,1.4,3.1,3.1,3.1H21c0.6,0,1-0.5,1-1s-0.5-1-1-1H7.6c-0.6,0-1.1-0.5-1.1-1.1C6.5,16.2,7,15.7,7.6,15.7z"/>
		</g>
	</g>
</g>
</svg>
