<?xml version="1.0" encoding="utf-8"?>
<!-- Generator: Adobe Illustrator 26.5.0, SVG Export Plug-In . SVG Version: 6.00 Build 0)  -->
<svg version="1.1" id="layer1" xmlns="http://www.w3.org/2000/svg" xmlns:xlink="http://www.w3.org/1999/xlink" x="0px" y="0px"
	 width="187px" height="50px" viewBox="0 0 187 50" enable-background="new 0 0 187 50" xml:space="preserve">
<g>
	<defs>
		<rect id="SVGID_1_" width="187" height="50"/>
	</defs>
	<clipPath id="SVGID_00000126299671071878637650000007103817121021800105_">
		<use xlink:href="#SVGID_1_"  overflow="visible"/>
	</clipPath>
	<g clip-path="url(#SVGID_00000126299671071878637650000007103817121021800105_)">
		<g>
			<g>
				<polygon fill="#0F7139" points="29.9,6.5 27.2,6.5 27.1,0 30,0 				"/>
				<polygon fill="#0F7139" points="34.3,8.1 31.9,7 34.6,1.1 37.2,2.4 				"/>
				<polygon fill="#0F7139" points="37.9,11.6 36.2,9.6 40.3,5.9 42.2,8.1 				"/>
				<path fill="#0F7139" d="M7.4,34.8C7.4,34.8,7.4,34.8,7.4,34.8c0-9.8,3.6-18.4,8.8-22.2c1.5,6.6,5,11.3,9.9,12.7
					c3.7,1.1,7.7,0.3,11.6-2.2c0.9,3,1.2,7.1,0.8,11.3c0,0.1,0,0.2,0,0.4h5.5c0.6-7-0.4-13.5-2.9-17.4l-0.7-1.1
					c-0.6-0.9-1.8-1.1-2.6-0.4L37,16.8c-3.2,2.9-6.5,4.1-9.3,3.3c-3.6-1.1-6.1-5.5-6.6-11.9L21,6.9c-0.1-1.1-1.2-1.8-2.2-1.5
					l-1.3,0.4C8.4,8.9,2,20.8,2,34.8H7.4z"/>
			</g>
			<g>
				<path fill="#0F7139" d="M12.1,42.3H10V39H8v3.3H6.2V39H0.6v2h3.6v1.3H4.1h-1c-1.7,0-3.1,1.4-3.1,3.1v1.4C0,48.6,1.4,50,3.1,50
					s3.1-1.4,3.1-3.1v-0.3v-2.1v-0.1H8V47h0v1.1c0,0.6-0.1,1.3-0.4,1.8h2.1c0.2-0.6,0.3-1.2,0.3-1.8v-3.8h2.1V42.3z M4.2,44.4v2.1
					v0.3c0,0.6-0.5,1.1-1.1,1.1S2,47.5,2,46.9v-1.4c0-0.6,0.5-1.1,1.1-1.1L4.2,44.4L4.2,44.4L4.2,44.4z"/>
				<g>
					<rect x="28.2" y="39" fill="#0F7139" width="1.7" height="3.8"/>
					<rect x="30.6" y="39" fill="#0F7139" width="1.7" height="3.8"/>
					<path fill="#0F7139" d="M26,39h-2v0.9h-6.4v2h6.4v0.7c-0.2,0-0.4-0.1-0.6-0.1h-3.3c-1.4,0-2.6,1.2-2.6,2.6s1.2,2.6,2.6,2.6h3.3
						c0.2,0,0.4,0,0.6-0.1v0.4c0,0.6-0.1,1.3-0.4,1.8h2.1c0.2-0.6,0.3-1.2,0.3-1.8v-3.9h0v-2.3h1.8v-2H26V39z M23.4,45.8h-3.3
						c-0.3,0-0.6-0.3-0.6-0.6s0.3-0.6,0.6-0.6h3.3c0.3,0,0.6,0.3,0.6,0.6S23.7,45.8,23.4,45.8z"/>
				</g>
				<g>
					<path fill="#0F7139" d="M46.2,41.1v-2h-1.1h-2h-3.6v2h3.6v0.6h-3.6v2h3.6v0.6H42c-1.6,0-2.9,1.3-2.9,2.9c0,1.6,1.3,2.9,2.9,2.9
						h0.3c1.6,0,2.9-1.3,2.9-2.9v-0.3v-0.6h1.1v-2h-1.1v-0.6h1.1v-2h-1.1v-0.6H46.2z M43.1,47.1c0,0.5-0.4,0.9-0.9,0.9H42
						c-0.5,0-0.9-0.4-0.9-0.9c0-0.5,0.4-0.9,0.9-0.9h1.1v0.6V47.1z"/>
					<polygon fill="#0F7139" points="38.2,39 36.1,39 36.1,50 39.1,50 39.1,48 38.2,48 					"/>
				</g>
			</g>
		</g>
		<g>
			<g>
				<path d="M82,42.9c-0.3,0.3-0.6,0.5-1.1,0.5c-0.4,0-1.9-0.5-4.7-1.5c-1,2.1-2.2,3.8-3.6,5.1c-1.4,1.3-3.2,2.3-5.4,3
					c-0.1,0-0.3,0.1-0.3,0.1c-0.3,0-0.4-0.1-0.4-0.2c0-0.1,0.1-0.3,0.3-0.4c1.2-0.9,2.4-2.2,3.6-3.9c1.1-1.5,2-3.1,2.7-4.6
					c-1.7-0.4-3.5-0.8-5.5-1.1c-2.5,3.9-5,5.8-7.6,5.8c-0.8,0-1.4-0.2-2.1-0.7s-1-1.1-1-1.9c0-1.6,1-3.1,3.1-4.4
					c1.9-1.2,3.8-1.8,5.7-1.8h0.4c1.8-3.2,2.7-5.2,2.7-6c0-0.2-0.1-0.3-0.4-0.3c0,0-0.3,0.2-0.9,0.7c-0.6,0.5-1.1,0.7-1.3,0.7
					c-0.5,0-1-0.3-1.7-1s-1-1.2-1-1.6c0-0.3,0.2-0.5,0.5-0.5c1.1,0,2.4-0.3,3.9-0.9c1.5-0.6,2.2-0.9,2.2-0.9c0.6,0,1.2,0.3,2.1,1
					c0.8,0.6,1.2,1.2,1.2,1.8c0,0.3-0.2,0.6-0.7,1c-0.2,0.2-0.6,1-1.4,2.4c-0.4,0.9-1.1,2.2-2,4c1.7,0.1,3.4,0.4,4.9,0.7
					c0-0.1,0-0.3,0-0.5c0-0.7-0.3-1-0.7-1c-0.1,0-0.3,0.1-0.7,0.1s-0.5,0.1-0.6,0.1c-0.2,0-0.3-0.1-0.3-0.2c0-0.2,0-0.3,0.1-0.4
					c1.2-1,2.2-1.6,3.1-1.6c0.4,0,0.9,0.4,1.6,1.1c0.6,0.7,1,1.3,1,1.7s-0.1,0.9-0.3,1.5c0.8,0.2,1.5,0.3,2.2,0.4
					c0.5,0.1,1.1,0.5,1.6,1.1c0.5,0.7,0.8,1.3,0.8,1.8C82.3,42.2,82.2,42.6,82,42.9z M62.2,40.4c-1.1,0.6-1.6,1.2-1.6,1.7
					c0,0.4,0.2,0.6,0.6,0.6c0.7,0,1.8-1.1,3.3-3.2C63.9,39.6,63.1,39.9,62.2,40.4z"/>
				<path d="M117,33.4c-0.4,0.2-0.8,0.3-1.2,0.3s-1.1,0-2.1-0.1s-1.7-0.1-2.2-0.1c-0.3,0-0.9,0-2,0.1c0,2.7,0,4.3,0,4.6
					c-0.1,2.3-0.3,3.7-0.6,4.3c-0.1,1.7-0.8,3.2-2.3,4.6c-1.5,1.4-3,2.2-4.7,2.4c-0.2,0-0.4,0-0.7,0c-0.3,0-0.5-0.1-0.5-0.1
					c0-0.1,0.1-0.2,0.5-0.4c0.6-0.4,1.4-1.2,2.4-2.5c1-1.4,1.6-2.5,1.6-3.4c0-0.2-0.8-0.8-2.5-1.7c-1.7-0.9-2.5-1.6-2.5-2.1
					c0-0.8,0.6-1.8,1.9-2.8c1.2-0.9,2.3-1.4,3.2-1.4c0.3,0,0.6,0,0.7,0v-1.3c-0.9,0.1-2.6,0.5-5,1.3c-2.3,0.7-3.7,1-4.1,1
					c-0.7,0-1.5-0.3-2.3-1c-0.9-0.7-1.4-1.4-1.4-2.1c0-0.5,0.3-0.7,0.9-0.7c0.2,0,0.4,0,0.8,0c0.3,0,0.5,0,0.7,0
					c0.3,0,1.8-0.2,4.3-0.7c3.6-0.6,5.7-1,6.2-1c0-0.6-0.1-1.5-0.3-2.6c-0.2-1.1-0.3-1.9-0.3-2.3c0-0.6,0.3-1,1-1s1.5,0.2,2.4,0.5
					c1.1,0.5,1.6,1,1.6,1.5c0,0.3-0.2,0.7-0.5,1.3c-0.1,0.2-0.2,0.9-0.2,2.1c2.3-0.3,3.7-0.5,4.3-0.5c0.6,0,1.4,0.3,2.3,1
					c0.9,0.7,1.4,1.3,1.4,1.9C117.7,33,117.4,33.2,117,33.4z M105.1,37.7c-0.3,0-0.6,0.2-1,0.6c-0.4,0.4-0.6,0.8-0.6,1
					s0.2,0.4,0.6,0.6c0.3,0.2,0.7,0.3,0.9,0.3c0.3,0,0.5-0.2,0.6-0.6C105.6,38.3,105.4,37.7,105.1,37.7z M114.3,29.3
					c-0.5,0-1.2-0.5-2.1-1.6c-0.1-0.2-0.7-0.9-1.6-2.2c0.5,0.1,1.4,0.1,2.5,0.2c0.7,0.1,1.3,0.2,1.8,0.5c0.7,0.4,1,0.8,1,1.4
					C116.1,28.7,115.5,29.3,114.3,29.3z M118.1,26c-0.3,0.3-0.8,0.4-1.2,0.4c-0.3,0-0.7-0.1-1-0.5c-0.3-0.2-1.1-1.3-2.5-3.3
					c0.4,0,1.1,0.1,2,0.1c2.1,0.2,3.2,0.9,3.2,2.2C118.6,25.3,118.4,25.7,118.1,26z"/>
				<path d="M135.2,39.3c-0.8,3.3-1.1,5.1-1.1,5.5c0,0.6-0.2,1.2-0.5,1.7c-0.3,0.6-0.8,0.8-1.4,0.8c-1.2,0-2.1-1-2.8-2.9
					c-0.5-1.4-0.7-2.9-0.7-4.4c0-2,0.3-4.3,0.8-6.9c0.5-2.6,0.8-4.1,0.8-4.3c0-0.2-0.1-0.5-0.3-1c-0.2-0.4-0.3-0.7-0.3-0.8
					c0-0.5,0.2-0.8,0.7-0.8c0.6,0,1.5,0.3,2.5,1c1.2,0.7,1.7,1.3,1.7,1.9c0,0.2-0.1,0.5-0.4,0.8c-0.5,0.8-1.1,2.4-1.8,4.9
					c-0.6,2.4-0.9,4.2-0.9,5.3c0,1.2,0.2,1.8,0.7,1.8c0.3,0,1-1,2.1-3c0.1-0.2,0.2-0.3,0.4-0.3c0.2,0,0.4,0.1,0.4,0.3
					C135.2,39.1,135.2,39.2,135.2,39.3z M148.6,47.6c-0.4,0-1.5-0.6-3.2-1.9c-0.9,1.2-2.3,1.8-4,1.8c-1.2,0-2.3-0.3-3.3-0.8
					c-1.2-0.6-1.8-1.5-1.8-2.7c0-1,0.4-1.9,1.2-2.5c0.7-0.5,1.6-0.8,2.7-0.8c0.8,0,1.6,0.1,2.7,0.3v-3.4c-0.9,0.2-1.7,0.3-2.6,0.3
					s-1.6-0.2-2.4-0.8c-0.8-0.5-1.2-1-1.2-1.6c0-0.5,0.1-0.7,0.4-0.7c0.2,0,0.4,0,0.8,0.1c0.3,0.1,0.6,0.1,0.8,0.1
					c0.9,0,2.2-0.3,3.8-0.8c0-0.5-0.1-0.8-0.1-1.1c-0.1-0.6-0.1-0.9-0.3-1.1c-0.1-0.1-0.3-0.3-0.5-0.7c-0.2,0-0.5,0-0.6,0
					c-0.7,0-1.4-0.2-2.1-0.6c-0.8-0.5-1.1-1-1.1-1.6c0-0.1,0.1-0.3,0.2-0.4s0.3-0.2,0.5-0.2c1.3,0,2.5-0.1,3.5-0.4
					c0.6-0.1,1.3-0.4,2-0.8c0.6-0.2,1-0.4,1.3-0.4c0.5,0,1.1,0.2,1.7,0.5c0.6,0.3,1,0.8,1,1.3c0,0.5-0.4,0.9-1.3,1.2
					c-0.2,0.1-0.9,0.3-1.9,0.5c1,0.5,1.5,1,1.5,1.3c0,0.3-0.1,0.5-0.3,0.8v0.7c0,0,0.2-0.1,0.5-0.2s0.6-0.3,0.8-0.3
					c0.5,0,0.9,0.2,1.3,0.5c0.4,0.4,0.6,0.8,0.6,1.3c0,0.4-0.3,0.8-0.9,1.1c-0.5,0.3-1.3,0.6-2.3,1c0,0.7,0,2.5,0,5.5
					c2.7,1.2,4.1,2.4,4.1,3.6C150.3,47,149.7,47.6,148.6,47.6z M140.3,43c-0.5,0-0.8,0.1-0.9,0.1c-0.3,0.1-0.4,0.4-0.4,0.8
					c0,0.6,0.6,1,1.8,1c0.9,0,1.5-0.3,1.9-1.1C141.7,43.3,140.9,43,140.3,43z"/>
				<path d="M181.9,25.1c1.6,1,2.3,1.7,2.3,2.1c0,0.1-0.1,0.1-0.3,0.2c-0.5,0.2-0.9,0.4-1.2,0.7c-0.6,0.4-1,1-1.2,1.6
					c0,0.1-0.1,0.2-0.2,0.3c0.3,0.5,0.4,0.8,0.4,1.1c-0.1,0.2-0.2,0.3-0.4,0.3c-2.6,0-5.1,0.2-7.6,0.7c-1.7,0.3-2.8,0.5-3.5,0.6
					c-0.3,2.1-0.8,3.9-1.2,5.6c-0.8,2.4-1.8,4.5-3,6.1c-1,1.5-2.5,2.9-4.2,4.1c-0.2,0.1-0.4,0.2-0.6,0.2v-0.1c1-1.4,1.9-2.8,2.5-4.3
					c1.2-2.7,2.1-5.4,2.6-8.1c0.5-2.7,0.7-5.3,0.7-8c0-0.8-0.1-1.3-0.4-1.6c-0.3-0.3-0.4-0.5-0.4-0.7c0-0.4,0.1-0.6,0.5-0.6
					c0.7,0,1.6,0.2,3,0.5c0.5,0.1,0.8,0.2,1,0.3c1.4-0.1,2.7-0.3,3.8-0.6c1.2-0.2,2.3-0.6,3.5-1.1c0.3-0.2,0.7-0.3,1-0.3
					C179.6,24.1,180.6,24.4,181.9,25.1z M181.5,32.6c0.5,0.4,0.8,0.7,0.8,1c0,0.3-0.1,0.5-0.1,0.8c-0.1,0.3-0.3,0.4-0.5,0.5
					c-1.4,0.3-2.9,0.6-4.3,0.8c0.3,0.2,0.4,0.4,0.4,0.6c0,0.1-0.1,0.3-0.4,0.5c-0.3,0.2-0.6,0.3-0.8,0.5c-0.5,0.4-1,0.9-1.5,1.3
					c1.4-0.1,3-0.3,5-0.6c-0.3-0.5-0.5-0.8-0.6-1c-0.2-0.2-0.3-0.5-0.3-0.8c0-0.1,0-0.2,0.1-0.2c0.2,0,0.5,0.1,0.8,0.1
					c0.7,0.2,1.4,0.5,2.1,0.8c0.9,0.5,1.4,0.8,1.7,1.2c0.2,0.3,0.3,0.7,0.3,1.1c0,0.4-0.1,0.9-0.4,1.3c-0.3,0.4-0.7,0.6-1.1,0.6
					c-0.3,0-0.8-0.3-1.2-0.8c-0.1-0.2-0.3-0.5-0.6-1c-0.1,0.1-0.2,0.1-0.3,0.1c-1.3,0.3-2.5,0.6-3.5,0.8c0.1,0,0.1,0.1,0.1,0.1
					c1.2,0.4,1.8,0.8,1.8,1.2c0,0.1-0.1,0.2-0.1,0.3c0.3-0.1,0.5-0.2,0.8-0.3c0.2-0.1,0.3-0.1,0.5-0.1c0.2,0,0.5,0.1,1,0.3
					c0.5,0.4,0.8,0.7,0.8,1c0,0.3-0.1,0.5-0.1,0.7c-0.1,0.3-0.3,0.5-0.4,0.5c-1,0.3-2,0.5-3,0.7c-0.1,0.5-0.1,1.1-0.2,1.7
					c1.9-0.2,3.4-0.5,4.6-0.7c0.1,0,0.3-0.1,0.4-0.1c0.6,0,1.4,0.3,2.3,0.8c0.8,0.7,1.2,1.3,1.2,2c0,0.8-0.3,1.1-0.9,1.1
					s-1.5-0.1-2.9-0.2c-0.8-0.1-1.6-0.2-2.2-0.2c-2.7,0-4.9,0.1-6.5,0.3c-1.4,0.1-2.8,0.4-4.2,0.7c-0.3,0.1-0.6,0.2-0.9,0.2
					c-0.5,0-1.2-0.3-1.8-1c-0.5-0.7-0.8-1.1-0.8-1.3c0-0.2,0.1-0.2,0.2-0.2c1.2,0,3.7-0.2,7.5-0.7c0.3,0,0.5-0.1,0.8-0.1
					c0-0.5-0.1-1-0.1-1.5c-0.4,0.1-0.8,0.1-1,0.1c-1.2,0-2.1-0.3-2.4-1.1c-0.3-0.4-0.4-0.8-0.4-1c0-0.1,0.1-0.1,0.2-0.1
					c1.3-0.1,2.5-0.2,3.4-0.3c-0.1-0.6-0.1-1-0.2-1.2c-0.1-0.2-0.2-0.4-0.3-0.6c-1.4,0.3-2.3,0.6-2.7,0.8c-0.8,0-1.2-0.4-1.2-1.1
					c0-0.6,0-1.1,0.1-1.5c0.1-0.6,0.3-1,0.8-1c0.2,0,0.3-0.1,0.5-0.1c0.1,0,0.3-0.2,0.6-0.4c0.3-0.2,0.5-0.4,0.8-0.7
					c0.1-0.2,0.3-0.4,0.3-0.6c-1.2,0-2-0.4-2.3-1.1c-0.3-0.4-0.4-0.8-0.4-1c0-0.1,0.1-0.1,0.2-0.1c2.5-0.1,4.5-0.3,6-0.7
					c1.1-0.3,2.1-0.5,3-0.9c0.2-0.1,0.4-0.2,0.6-0.2C180.7,32.3,181.1,32.4,181.5,32.6z M170.6,30.4c0.9-0.1,1.9-0.3,3.1-0.5
					c1.8-0.2,3.2-0.5,4.4-0.9c0-0.1,0.1-0.2,0.1-0.3c0.1-0.3,0.2-0.6,0.2-0.8c0-0.8-0.2-1.1-0.7-1.1c-0.6,0-1.8,0.2-3.6,0.5
					c-1.5,0.3-2.5,0.5-3.2,0.7C170.8,28.8,170.7,29.7,170.6,30.4z"/>
			</g>
			<g>
				<path d="M58.5,13.3c-0.4,0-0.8,0-1.1,0.1v-1.1c0.3,0,0.7,0.1,1.1,0.1h6.2c0.4,0,0.8,0,1.1-0.1v1.1c-0.3,0-0.7-0.1-1.1-0.1h-1.8
					v1h1.4c0.5,0,0.8,0,1.1,0c0,0.4,0,0.7,0,1.1v3.8c0,0.5,0,0.9,0.1,1.2h-1v-0.5h-5.4v0.5h-1c0-0.4,0.1-0.6,0.1-1.2v-3.7
					c0-0.4,0-0.7-0.1-1.1c0.3,0,0.6,0,1.1,0h1.3c0-0.3,0-0.4,0-0.6v-0.5H58.5z M61.1,15.3c-0.1,0.9-0.2,1.3-0.4,1.8
					c-0.2,0.5-0.5,0.7-1.1,1.2c-0.2-0.3-0.4-0.5-0.7-0.7v1.3h5.4v-2.5c0,0,0,0,0,0.2c0,0.4-0.1,0.5-0.1,0.7
					c-0.1,0.3-0.4,0.4-1.1,0.4c-0.9,0-1.1-0.2-1.1-0.8v-1.6H61.1z M58.9,15.3v2.2c0.4-0.2,0.6-0.4,0.9-0.7c0.3-0.4,0.4-0.8,0.4-1.5
					H58.9z M61.2,13.8v0.5H62v-1h-0.8V13.8z M62.9,16.6c0,0.2,0,0.2,0.3,0.2c0.4,0,0.4,0,0.4-0.8c0.3,0.1,0.5,0.2,0.8,0.2v-1h-1.4
					V16.6z"/>
				<path d="M74.1,17.5c-0.5,1.2-1.1,1.7-1.9,1.7c-1.1,0-1.8-1.1-1.8-2.6c0-1,0.4-2,1-2.7c0.8-0.9,1.9-1.3,3.2-1.3
					c2.2,0,3.7,1.4,3.7,3.4c0,1.6-0.8,2.9-2.3,3.5c-0.4,0.2-0.8,0.3-1.5,0.4c-0.2-0.5-0.3-0.7-0.6-1.1c0.9-0.1,1.4-0.3,1.8-0.5
					c0.8-0.4,1.3-1.3,1.3-2.3c0-0.9-0.4-1.6-1.1-2.1c-0.3-0.2-0.5-0.2-0.9-0.3C74.8,15.2,74.5,16.4,74.1,17.5z M72.7,14.2
					c-0.8,0.6-1.3,1.5-1.3,2.5c0,0.8,0.3,1.4,0.7,1.4c0.3,0,0.6-0.4,1-1.2c0.4-0.8,0.7-2.1,0.8-3.1C73.4,13.8,73.1,13.9,72.7,14.2z"
					/>
				<path d="M85.6,17.7c-0.7,1.1-1.2,1.6-2.2,2.4c-0.2-0.4-0.4-0.5-0.7-0.8c0.6-0.4,0.9-0.6,1.2-0.9c0.3-0.4,0.5-0.6,0.8-1.1
					L85.6,17.7z M86.4,12.5c0-0.2,0-0.5-0.1-0.7h1.1c0,0.2-0.1,0.4-0.1,0.7v0.3h2.6c0.5,0,0.8,0,1.1-0.1v1c-0.3,0-0.5-0.1-1-0.1
					h-6.3c-0.5,0-0.7,0-1,0.1v-1c0.3,0,0.6,0.1,1.1,0.1h2.4V12.5z M84.7,17.1c-0.4,0-0.6,0-0.8,0c0-0.2,0-0.4,0-0.7V15
					c0-0.3,0-0.5,0-0.5c0,0,0-0.1,0-0.1c0,0,0-0.1,0-0.1c0.1,0,0.1,0,0.2,0c0.1,0,0.4,0,0.6,0h4.5c0.6,0,0.6,0,0.8,0
					c0,0.2,0,0.4,0,0.8v1.3c0,0.3,0,0.5,0,0.7c-0.2,0-0.5,0-0.8,0h-1.6v2.3c0,0.7-0.3,0.9-1.4,0.9c-0.1,0-0.2,0-0.8,0
					c0-0.4-0.1-0.6-0.3-1c0.4,0.1,0.7,0.1,1,0.1c0.3,0,0.4,0,0.4-0.2v-2.1H84.7z M84.9,16.1H89v-1h-4.1V16.1z M89.1,17.2
					c0.4,0.5,0.5,0.8,0.9,1.1c0.4,0.4,0.7,0.5,1.3,0.9c-0.3,0.3-0.5,0.5-0.7,0.9c-0.6-0.4-0.9-0.7-1.4-1.1c-0.4-0.4-0.6-0.6-1-1.2
					L89.1,17.2z"/>
				<path d="M99.2,12.9c0-0.3,0-0.6-0.1-0.9h1.2c0,0.3-0.1,0.6-0.1,0.9v5.8h2.3v-4.2c0-0.4,0-0.6-0.1-0.9h1.2c0,0.3-0.1,0.6-0.1,0.9
					v4.7c0,0.4,0,0.8,0.1,1.1h-1.1v-0.7h-5.4v0.7H96c0-0.4,0.1-0.6,0.1-1.1v-4.7c0-0.3,0-0.6-0.1-0.9h1.1c0,0.2,0,0.5,0,0.9v4.1h2.1
					V12.9z"/>
				<path d="M108.8,20.1c0-0.3,0.1-0.7,0.1-1.2v-5.3c0-0.4,0-0.7,0-1c0.3,0,0.6,0,1,0h5.2c0.4,0,0.7,0,1,0c0,0.3,0,0.6,0,1v5.3
					c0,0.5,0,0.9,0.1,1.2H115v-0.7h-5v0.7H108.8z M110,18.4h5v-4.7h-5V18.4z"/>
				<path d="M124.4,12.2c0,0.1-0.1,0.2-0.1,0.3c0,0.1,0,0.2-0.1,0.3c0,0.2,0,0.2-0.2,0.9c0,0.2,0,0.2-0.1,0.3c0.3,0,0.4,0,0.6,0
					c0.6,0,1.1,0.2,1.4,0.5c0.3,0.4,0.4,0.8,0.4,1.6c0,1.6-0.3,2.9-0.7,3.4c-0.3,0.3-0.5,0.4-1,0.4c-0.4,0-0.8-0.1-1.4-0.3
					c0-0.2,0-0.3,0-0.4c0-0.2,0-0.4-0.1-0.8c0.5,0.2,1,0.4,1.4,0.4c0.3,0,0.4-0.2,0.6-0.6c0.1-0.5,0.2-1.3,0.2-2.1
					c0-0.9-0.2-1.1-0.9-1.1c-0.2,0-0.3,0-0.5,0c-0.3,1.1-0.4,1.4-0.6,2c-0.3,0.9-0.6,1.5-1.1,2.6c0,0.1,0,0.1-0.1,0.3
					c0,0.1,0,0.1-0.1,0.2l-1.1-0.6c0.3-0.4,0.6-1,1-1.7c0.4-0.9,0.5-1.3,0.9-2.6c-0.5,0.1-1.4,0.2-1.7,0.3l-0.1-1.1
					c0.3,0,1.5-0.1,2-0.2c0.2-1,0.2-1.6,0.2-1.9c0,0,0-0.1,0-0.2L124.4,12.2z M127.5,13.4c0.9,1.1,1.5,2.2,1.9,3.6l-1.1,0.5
					c-0.2-0.8-0.4-1.4-0.7-2.1c-0.3-0.7-0.6-1.1-1.1-1.6L127.5,13.4z"/>
				<path d="M135.7,13.9c-0.1,0.5-0.3,1.4-0.4,2.3c0,0.1,0,0.1,0,0.3l0,0c0.5-0.5,1.7-0.9,2.8-0.9c1.6,0,2.6,0.8,2.6,2
					c0,0.7-0.4,1.4-1,1.8c-0.6,0.4-1.4,0.6-2.4,0.6c-0.8,0-1.3-0.1-2.4-0.3c0-0.6,0-0.8-0.1-1.2c0.9,0.3,1.7,0.5,2.5,0.5
					c1.3,0,2.2-0.5,2.2-1.3c0-0.6-0.6-1-1.6-1c-0.8,0-1.7,0.2-2.3,0.7c-0.2,0.1-0.2,0.2-0.4,0.4l-1.2,0c0-0.2,0-0.2,0.1-0.6
					c0.1-0.6,0.2-1.6,0.4-2.7c0-0.2,0-0.3,0.1-0.5L135.7,13.9z M135.8,12.1c0.6,0.4,2.4,0.9,3.5,1l-0.4,1.1
					c-1.6-0.4-2.6-0.7-3.6-1.2L135.8,12.1z"/>
			</g>
		</g>
	</g>
	<rect clip-path="url(#SVGID_00000126299671071878637650000007103817121021800105_)" fill="none" width="187" height="50"/>
</g>
</svg>
