<?xml version="1.0" encoding="utf-8"?>
<!-- Generator: Adobe Illustrator 26.5.0, SVG Export Plug-In . SVG Version: 6.00 Build 0)  -->
<svg version="1.1" id="layer1" xmlns="http://www.w3.org/2000/svg" xmlns:xlink="http://www.w3.org/1999/xlink" x="0px" y="0px"
	 width="24px" height="24px" viewBox="0 0 24 24" enable-background="new 0 0 24 24" xml:space="preserve">
<g>
	<defs>
		<rect id="SVGID_1_" width="24" height="24"/>
	</defs>
	<clipPath id="SVGID_00000015341966704881194790000015352386463097403038_">
		<use xlink:href="#SVGID_1_"  overflow="visible"/>
	</clipPath>
	<g clip-path="url(#SVGID_00000015341966704881194790000015352386463097403038_)">
		<g>
			<path fill="#0F7139" d="M23.7,20.8c0.2,0.2,0.3,0.5,0.3,0.8c0,0.3-0.1,0.6-0.3,0.8l-1.3,1.3c-0.2,0.2-0.5,0.3-0.8,0.3
				c-0.3,0-0.6-0.1-0.8-0.3L16.1,19c-0.2-0.2-0.3-0.5-0.3-0.8v-0.8c-1.8,1.4-3.8,2.1-6,2.1c-2.7,0-5-1-6.9-2.9C1,14.7,0,12.4,0,9.7
				c0-2.7,1-5,2.9-6.9C4.8,1,7.1,0,9.7,0c2.7,0,5,1,6.9,2.9c1.9,1.9,2.9,4.2,2.9,6.9c0,2.3-0.7,4.3-2.1,6h0.8c0.3,0,0.6,0.1,0.8,0.3
				L23.7,20.8z M5.5,14c1.2,1.2,2.6,1.8,4.2,1.8c1.7,0,3.1-0.6,4.2-1.8c1.2-1.2,1.8-2.6,1.8-4.2c0-1.7-0.6-3.1-1.8-4.2
				c-1.2-1.2-2.6-1.8-4.2-1.8c-1.7,0-3.1,0.6-4.2,1.8C4.3,6.7,3.7,8.1,3.7,9.7C3.7,11.4,4.3,12.8,5.5,14z"/>
		</g>
	</g>
</g>
</svg>
